HIERARCHY
ROOT Hips
{
	OFFSET 0.000000 0.000000 0.000000 
	CHANNELS 6 Xposition Yposition Zposition Zrotation Yrotation Xrotation
	JOINT LeftUpLeg
	{
		OFFSET 1.363060 -1.794630 0.839290 
		CHANNELS 3 Zrotation Yrotation Xrotation
		JOINT LeftLeg
		{
			OFFSET 2.448110 -6.726130 0.000000 
			CHANNELS 3 Zrotation Yrotation Xrotation
			JOINT LeftFoot
			{
				OFFSET 2.562200 -7.039590 0.000000 
				CHANNELS 3 Zrotation Yrotation Xrotation
				JOINT LeftToeBase
				{
					OFFSET 0.157640 -0.433110 2.322550 
					CHANNELS 3 Zrotation Yrotation Xrotation
					End Site
					{
						OFFSET 0.000000 0.000000 0.000000 
					}
				}
			}
		}
	}
	JOINT RightUpLeg
	{
		OFFSET -1.305520 -1.794630 0.839290 
		CHANNELS 3 Zrotation Yrotation Xrotation
		JOINT RightLeg
		{
			OFFSET -2.542530 -6.985550 0.000000 
			CHANNELS 3 Zrotation Yrotation Xrotation
			JOINT RightFoot
			{
				OFFSET -2.568260 -7.056230 0.000000 
				CHANNELS 3 Zrotation Yrotation Xrotation
				JOINT RightToeBase
				{
					OFFSET -0.164730 -0.452590 2.363150 
					CHANNELS 3 Zrotation Yrotation Xrotation
					End Site
					{
						OFFSET 0.000000 0.000000 0.000000 
					}
				}
			}
		}
	}
	JOINT Spine
	{
		OFFSET 0.028270 2.035590 -0.193380 
		CHANNELS 3 Zrotation Yrotation Xrotation
		JOINT Spine1
		{
			OFFSET 0.056720 2.048850 -0.042750 
			CHANNELS 3 Zrotation Yrotation Xrotation
			JOINT Neck1
			{
				OFFSET -0.054170 1.746240 0.172020 
				CHANNELS 3 Zrotation Yrotation Xrotation
				JOINT Head
				{
					OFFSET 0.104070 1.761360 -0.123970 
					CHANNELS 3 Zrotation Yrotation Xrotation
					End Site
					{
						OFFSET 0.000000 0.000000 0.000000 
					}
				}
			}
			JOINT LeftArm
			{
				OFFSET 3.362410 1.200890 -0.311210 
				CHANNELS 3 Zrotation Yrotation Xrotation
				JOINT LeftForeArm
				{
					OFFSET 4.983000 -0.000000 -0.000000 
					CHANNELS 3 Zrotation Yrotation Xrotation
					JOINT LeftHand
					{
						OFFSET 3.483560 -0.000000 -0.000000 
						CHANNELS 3 Zrotation Yrotation Xrotation
						JOINT LeftHandIndex1
						{
							OFFSET 0.715260 -0.000000 -0.000000 
							CHANNELS 3 Zrotation Yrotation Xrotation
							End Site
							{
								OFFSET 0.000000 0.000000 0.000000 
							}
						}
					}
				}
			}
			JOINT RightArm
			{
				OFFSET -3.136600 1.374050 -0.404650 
				CHANNELS 3 Zrotation Yrotation Xrotation
				JOINT RightForeArm
				{
					OFFSET -5.241900 -0.000000 -0.000000 
					CHANNELS 3 Zrotation Yrotation Xrotation
					JOINT RightHand
					{
						OFFSET -3.444170 -0.000000 -0.000000 
						CHANNELS 3 Zrotation Yrotation Xrotation
						JOINT RightHandIndex1
						{
							OFFSET -0.622530 -0.000000 -0.000000 
							CHANNELS 3 Zrotation Yrotation Xrotation
							End Site
							{
								OFFSET 0.000000 0.000000 0.000000 
							}
						}
					}
				}
			}
		}
	}
}
MOTION
Frames: 17
Frame Time: 0.041667
6.627824 17.551387 8.754523 176.951846 5.852168 179.110055 -4.832015 4.433631 -23.765773 3.094824 12.678333 36.904992 3.062868 -12.287344 0.766635 0.338000 -3.736000 -10.335100 3.653209 -1.221167 -24.461917 -4.480369 -13.704716 41.580592 -3.104378 16.848423 4.375486 -0.349400 3.798100 -10.509400 -1.056302 1.158376 1.347753 1.383290 0.873436 -3.257663 4.779524 2.237395 7.889693 -1.359700 1.297100 9.226400 -31.393195 -45.116615 -6.621467 69.327286 -47.987547 -46.086037 1.978474 -2.579589 -8.035532 -7.125000 0.000000 0.000000 27.473272 43.571351 1.666093 -68.326719 45.708126 -46.889685 -2.418682 2.951479 -8.434349 7.125000 0.000000 0.000000 
6.626821 17.549180 8.758436 176.944269 5.868557 179.142349 -4.842260 4.431475 -23.816823 3.096594 12.679549 36.912646 3.060664 -12.279372 0.777977 0.333800 -3.712900 -10.270300 3.644044 -1.201524 -24.517411 -4.484548 -13.706456 41.592676 -3.102333 16.832957 4.381296 -0.350600 3.804600 -10.527600 -1.064300 1.159440 1.319724 1.377705 0.873910 -3.304748 4.916742 2.220682 7.981687 -1.276100 1.303700 9.289500 -31.387284 -45.099271 -6.595405 69.266130 -47.972106 -46.022269 1.976819 -2.582360 -8.060875 -7.125000 0.000000 0.000000 27.482801 43.583951 1.677796 -68.261564 45.677101 -46.815513 -2.419885 2.954855 -8.498461 7.125000 0.000000 0.000000 
6.627523 17.548678 8.759540 177.021114 5.874287 179.140444 -4.765110 4.451010 -23.819029 3.101959 12.682300 36.919879 3.062751 -12.281853 0.803954 0.334400 -3.716400 -10.280200 3.729522 -1.189532 -24.515283 -4.485385 -13.708532 41.602827 -3.100847 16.828890 4.343901 -0.353800 3.821500 -10.575000 -1.052990 1.158608 1.312486 1.350766 0.872813 -3.327963 4.954778 2.209090 7.973710 -1.259200 1.302600 9.286100 -31.358462 -45.069140 -6.599330 69.222948 -47.966465 -45.980075 1.977868 -2.583880 -8.106388 -7.125000 0.000000 0.000000 27.532327 43.609295 1.721120 -68.244750 45.655720 -46.789105 -2.420760 2.956663 -8.568722 7.125000 0.000000 0.000000 
6.627423 17.549581 8.757132 176.926765 5.835676 179.123887 -4.862109 4.431377 -23.801966 3.101395 12.685663 36.934786 3.065911 -12.324087 0.772294 0.333300 -3.710300 -10.263000 3.625368 -1.253929 -24.508190 -4.488123 -13.710488 41.604814 -3.104003 16.859706 4.403137 -0.351800 3.810800 -10.545000 -1.071448 1.134259 1.326732 1.367336 0.865417 -3.298825 4.847297 2.194444 7.874216 -1.331800 1.284400 9.223900 -31.311478 -45.046043 -6.636500 69.179548 -47.964163 -45.940917 1.981353 -2.584595 -8.146051 -7.125000 0.000000 0.000000 27.565536 43.639611 1.750633 -68.214202 45.639834 -46.750437 -2.422527 2.957186 -8.593117 7.125000 0.000000 0.000000 
6.629630 17.549280 8.758737 176.976578 5.854428 179.123242 -4.805263 4.459026 -23.819164 3.105266 12.687917 36.939290 3.066672 -12.319111 0.794687 0.335700 -3.723600 -10.300300 3.688132 -1.205270 -24.501175 -4.489034 -13.711017 41.610671 -3.102963 16.844343 4.343003 -0.356000 3.833500 -10.608700 -1.058838 1.145566 1.326013 1.385179 0.866048 -3.300080 5.018389 2.174698 7.957970 -1.229200 1.292000 9.280900 -31.276998 -45.047009 -6.656139 69.127985 -47.953463 -45.888315 1.978712 -2.587097 -8.156643 -7.125000 0.000000 0.000000 27.554180 43.638628 1.740124 -68.213961 45.637270 -46.751584 -2.421803 2.957050 -8.606266 7.125000 0.000000 0.000000 
6.629630 17.548478 8.760744 176.989952 5.842026 179.133255 -4.793733 4.458721 -23.834224 3.104210 12.686437 36.936463 3.062906 -12.302791 0.834782 0.337200 -3.731400 -10.322300 3.703289 -1.215956 -24.522486 -4.490782 -13.712145 41.616308 -3.102289 16.838162 4.336984 -0.359200 3.850200 -10.655600 -1.058606 1.126943 1.313803 1.377588 0.858636 -3.330051 5.021878 2.162541 7.939021 -1.230600 1.286600 9.266900 -31.237716 -45.027908 -6.694208 69.035865 -47.935656 -45.797139 1.972516 -2.590878 -8.165748 -7.125000 0.000000 0.000000 27.596664 43.665401 1.798902 -68.200459 45.619859 -46.729738 -2.421852 2.958241 -8.577278 7.125000 0.000000 0.000000 
6.631536 17.547675 8.762550 177.046152 5.872576 179.143162 -4.730857 4.486847 -23.857534 3.109387 12.688893 36.943929 3.063965 -12.299835 0.859611 0.336500 -3.727900 -10.312400 3.772055 -1.158723 -24.531175 -4.492163 -13.713902 41.625758 -3.100076 16.815629 4.283432 -0.359400 3.851100 -10.658100 -1.046138 1.148684 1.303827 1.372903 0.867956 -3.358133 5.054183 2.138985 7.932158 -1.216200 1.278300 9.261900 -31.233075 -45.035768 -6.686358 69.008170 -47.927007 -45.766206 1.972454 -2.594256 -8.159013 -7.125000 0.000000 0.000000 27.607309 43.654891 1.806317 -68.205983 45.619837 -46.735778 -2.421151 2.958003 -8.564712 7.125000 0.000000 0.000000 
6.631035 17.548377 8.760744 176.987498 5.834984 179.134985 -4.796645 4.478201 -23.855908 3.110196 12.692701 36.958318 3.065556 -12.325283 0.838509 0.335100 -3.719900 -10.290100 3.707308 -1.232922 -24.535028 -4.493642 -13.714314 41.626164 -3.101461 16.835218 4.342522 -0.358200 3.844900 -10.640600 -1.060447 1.126744 1.315669 1.382340 0.858077 -3.328621 5.076792 2.117456 7.922816 -1.206000 1.269700 9.258600 -31.201400 -45.031505 -6.728024 69.006538 -47.930749 -45.765701 1.975335 -2.594838 -8.158810 -7.125000 0.000000 0.000000 27.587697 43.664578 1.804519 -68.216688 45.626275 -46.747667 -2.420229 2.959168 -8.567871 7.125000 0.000000 0.000000 
6.632339 17.547775 8.763252 177.029791 5.838604 179.141447 -4.748481 4.485802 -23.872517 3.112470 12.693927 36.961571 3.065976 -12.327274 0.876863 0.335000 -3.719400 -10.288600 3.757437 -1.196535 -24.538463 -4.494725 -13.715262 41.633396 -3.100058 16.823635 4.308078 -0.353700 3.821200 -10.574100 -1.047448 1.133597 1.310372 1.385429 0.860757 -3.357960 5.076369 2.094404 7.909810 -1.208300 1.257700 9.252800 -31.187403 -45.051414 -6.762680 68.944090 -47.913514 -45.702385 1.972664 -2.596739 -8.144415 -7.125000 0.000000 0.000000 27.591491 43.659592 1.797975 -68.223116 45.627537 -46.755725 -2.421987 2.957102 -8.574553 7.125000 0.000000 0.000000 
6.631035 17.547274 8.763754 177.045336 5.799123 179.178143 -4.740841 4.460929 -23.905232 3.113319 12.694297 36.965413 3.063207 -12.315069 0.893805 0.338200 -3.737000 -10.337900 3.770431 -1.265853 -24.593384 -4.495088 -13.715213 41.637285 -3.099788 16.845898 4.358759 -0.351900 3.811300 -10.546300 -1.040949 1.120634 1.297699 1.377260 0.854428 -3.367549 5.077591 2.077678 7.893247 -1.206900 1.248000 9.240100 -31.213508 -45.075084 -6.754716 68.962884 -47.912263 -45.715021 1.973859 -2.600041 -8.143235 -7.125000 0.000000 0.000000 27.558153 43.644663 1.791055 -68.200465 45.631062 -46.736929 -2.422439 2.955539 -8.598853 7.125000 0.000000 0.000000 
6.632339 17.547575 8.763653 177.054986 5.796074 179.177883 -4.730185 4.477196 -23.916573 3.115892 12.697131 36.974579 3.064317 -12.327705 0.917584 0.337600 -3.734100 -10.329700 3.785811 -1.258043 -24.590046 -4.498920 -13.717523 41.646478 -3.100547 16.837164 4.306662 -0.358400 3.846200 -10.644400 -1.029673 1.124217 1.300891 1.402459 0.854653 -3.363323 5.086201 2.055290 7.893586 -1.199800 1.236200 9.240200 -31.229536 -45.096019 -6.775555 68.935481 -47.901618 -45.685998 1.971472 -2.599936 -8.169728 -7.125000 0.000000 0.000000 27.543238 43.639187 1.780972 -68.188142 45.631388 -46.725021 -2.425796 2.955733 -8.655872 7.125000 0.000000 0.000000 
6.633744 17.546471 8.764657 177.072652 5.807114 179.191946 -4.707773 4.498343 -23.942724 3.120114 12.700444 36.986794 3.067654 -12.350314 0.938640 0.334000 -3.714400 -10.274400 3.812373 -1.246788 -24.614441 -4.501033 -13.719663 41.656439 -3.099214 16.832208 4.299654 -0.360100 3.854800 -10.668600 -1.019913 1.132668 1.297728 1.414046 0.858356 -3.374242 5.087261 2.046703 7.885960 -1.198700 1.231100 9.236900 -31.249167 -45.115426 -6.792587 68.943992 -47.899404 -45.693229 1.970702 -2.599484 -8.141966 -7.125000 0.000000 0.000000 27.523633 43.640832 1.762800 -68.157957 45.626269 -46.695524 -2.427378 2.953815 -8.722508 7.125000 0.000000 0.000000 
6.633342 17.545969 8.765660 177.075909 5.809311 179.191379 -4.704558 4.498076 -23.948144 3.122210 12.702937 36.995700 3.066954 -12.352694 0.955099 0.331600 -3.700600 -10.235900 3.814948 -1.262172 -24.624663 -4.501928 -13.720605 41.660856 -3.099040 16.840869 4.314271 -0.360800 3.859000 -10.680200 -1.010608 1.135609 1.298420 1.426368 0.859801 -3.382554 5.067805 2.043149 7.886657 -1.204700 1.225700 9.236700 -31.277541 -45.127067 -6.798364 68.950297 -47.896924 -45.698565 1.969943 -2.598194 -8.156214 -7.125000 0.000000 0.000000 27.495829 43.638626 1.748380 -68.147652 45.629950 -46.687774 -2.435487 2.951151 -8.783439 7.125000 0.000000 0.000000 
6.633944 17.545468 8.765761 177.098991 5.796175 179.193194 -4.684809 4.511356 -23.960784 3.127337 12.706210 37.007853 3.065976 -12.340253 0.946836 0.337200 -3.731700 -10.323100 3.843439 -1.280730 -24.631995 -4.502036 -13.720990 41.663819 -3.098108 16.839281 4.317451 -0.359700 3.852700 -10.662500 -1.000256 1.135668 1.265327 1.425449 0.861652 -3.433600 5.054115 2.044880 7.844781 -1.211900 1.222800 9.178800 -31.419899 -45.124553 -6.647455 68.981426 -47.890933 -45.721326 1.970410 -2.597864 -8.164291 -7.125000 0.000000 0.000000 27.576030 43.616900 1.842982 -68.158290 45.623438 -46.693383 -2.439448 2.948414 -8.874922 7.125000 0.000000 0.000000 
6.633844 17.545267 8.765861 177.088073 5.781104 179.193822 -4.695366 4.505077 -23.967814 3.128407 12.708536 37.016467 3.065025 -12.345908 0.966047 0.335800 -3.723800 -10.300800 3.831904 -1.314298 -24.637396 -4.499949 -13.719119 41.658294 -3.098559 16.856729 4.358771 -0.354000 3.822700 -10.578400 -0.999561 1.133594 1.263387 1.426697 0.860752 -3.435435 5.022658 2.028262 7.856935 -1.230500 1.212500 9.180800 -31.461124 -45.144048 -6.605783 68.959155 -47.879660 -45.696694 1.964572 -2.597834 -8.169556 -7.125000 0.000000 0.000000 27.576073 43.607638 1.833261 -68.151521 45.623389 -46.687932 -2.440651 2.946488 -8.927587 7.125000 0.000000 0.000000 
6.635449 17.545668 8.765961 177.115747 5.792161 179.185734 -4.663102 4.520243 -23.964342 3.132121 12.711447 37.024365 3.065549 -12.344044 0.972360 0.336700 -3.729100 -10.315700 3.866598 -1.296183 -24.624518 -4.498289 -13.718147 41.656073 -3.097967 16.853311 4.342274 -0.353200 3.818500 -10.566600 -0.990763 1.146940 1.263161 1.428646 0.866277 -3.447907 5.006114 2.031055 7.876439 -1.239300 1.213300 9.189000 -31.476817 -45.172672 -6.575400 68.952216 -47.872323 -45.684274 1.967942 -2.601412 -8.133155 -7.125000 0.000000 0.000000 27.569759 43.593749 1.814683 -68.165738 45.631002 -46.705266 -2.443786 2.945355 -8.942932 7.125000 0.000000 0.000000 
6.637958 17.545969 8.766463 177.143807 5.809428 179.190575 -4.626681 4.537490 -23.976834 3.136259 12.713371 37.029558 3.065078 -12.328339 0.962947 0.340300 -3.748800 -10.371100 3.906159 -1.259295 -24.623011 -4.497853 -13.718003 41.656389 -3.097633 16.844157 4.302413 -0.358000 3.843600 -10.637200 -0.981247 1.164227 1.261963 1.440493 0.872704 -3.448238 5.021396 2.021123 7.900389 -1.231000 1.211000 9.197300 -31.519563 -45.189963 -6.499326 68.953598 -47.866920 -45.682777 1.966231 -2.601024 -8.149367 -7.125000 0.000000 0.000000 27.586315 43.579860 1.799073 -68.192171 45.637360 -46.734726 -2.445285 2.943015 -8.885100 7.125000 0.000000 0.000000 
